#!OML:ASF H:\ManfredObstacles\Project 1\Capture day 1\Session 1\Male.ASF
:FULLY-SPECIFIED
:DEGREES
581
root -10.8157 16.5919 -11.6444 12.4949 -46.4457 -365.604
lowerback -9.08848 -0.549432 -4.75937
upperback 1.62634 -0.321401 2.03117
thorax 6.87267 -0.394423 4.78784
lowerneck -2.4588 2.12815 -5.12524
upperneck -2.22872 3.0305 7.66602
head -0.491198 1.53395 3.37623
rclavicle -2.98674e-014 1.47101e-014
rhumerus -36.2007 -21.6385 -72.606
rradius 26.1323
rwrist 32.9172
rhand -10.366 -9.35694
rfingers 7.12502
rthumb 15.6312 -38.7454
lclavicle -2.98674e-014 1.47101e-014
lhumerus -24.7332 9.69212 82.2345
lradius 17.8602
lwrist -34.1201
lhand -7.6797 8.12811
lfingers 7.12502
lthumb 18.217 37.2951
rfemur -20.1169 -14.3781 8.88226
rtibia 37.5218
rfoot -11.6265 -14.5462
rtoes 26.8197
lfemur -14.1643 5.58593 -19.7458
ltibia 22.2058
lfoot -9.57544 -8.40716
ltoes 16.6096
582
root -10.7957 16.5848 -11.5979 12.4174 -45.6028 -365.748
lowerback -9.26793 -0.452886 -4.36547
upperback 1.87004 -0.204067 1.68916
thorax 7.21566 -0.326716 4.21974
lowerneck -2.6965 1.89019 -4.6419
upperneck -2.25945 2.70839 7.79001
head -0.430835 1.37199 3.3296
rclavicle -2.83268e-015 -2.18663e-014
rhumerus -35.8014 -22.4767 -73.2834
rradius 26.2363
rwrist 32.8494
rhand -10.2138 -8.67216
rfingers 7.12502
rthumb 15.7778 -38.0491
lclavicle -2.83268e-015 -2.18663e-014
lhumerus -24.636 9.6072 81.061
lradius 17.601
lwrist -34.4521
lhand -8.02217 8.04851
lfingers 7.12502
lthumb 17.8875 37.2459
rfemur -20.3937 -13.4507 8.96008
rtibia 38.5935
rfoot -11.2997 -11.2528
rtoes 28.6436
lfemur -14.1813 5.69709 -19.7048
ltibia 22.4974
lfoot -9.40797 -9.29113
ltoes 16.2909
583
root -10.7766 16.579 -11.5553 12.3935 -44.779 -365.844
lowerback -9.45811 -0.422584 -4.14936
upperback 2.05176 -0.163727 1.46801
thorax 7.51216 -0.302986 3.87035
lowerneck -2.90188 1.73943 -4.28521
upperneck -2.24981 2.50067 7.79529
head -0.372467 1.26883 3.26545
rclavicle -5.86415e-015 -1.82882e-014
rhumerus -35.3334 -23.0366 -73.8579
rradius 26.2785
rwrist 32.6841
rhand -10.0079 -8.26227
rfingers 7.12502
rthumb 15.976 -37.6235
lclavicle -5.86415e-015 -1.82882e-014
lhumerus -24.5725 10.3831 79.8408
lradius 17.2256
lwrist -35.0915
lhand -8.14514 8.19601
lfingers 7.12502
lthumb 17.7692 37.4041
rfemur -20.8472 -12.2783 9.14741
rtibia 39.6297
rfoot -11.657 -9.29663
rtoes 28.8938
lfemur -14.245 5.26024 -19.6705
ltibia 22.7401
lfoot -9.49052 -9.73383
ltoes 15.9411
584
root -10.7617 16.5737 -11.5102 12.302 -43.9774 -365.829
lowerback -9.68507 -0.458179 -4.05045
upperback 2.16832 -0.199848 1.29183
thorax 7.76971 -0.31986 3.62294
lowerneck -2.61308 1.61937 -4.39359
upperneck -2.39268 2.34678 8.11796
head -0.464297 1.1845 3.39403
rclavicle 2.38542e-014 -1.98785e-015
rhumerus -34.9838 -22.859 -74.5422
rradius 26.4799
rwrist 32.1474
rhand -9.82711 -8.02443
rfingers 7.12502
rthumb 16.1501 -37.3716
lclavicle 2.38542e-014 -1.98785e-015
lhumerus -24.7223 12.1234 78.4188
lradius 16.7683
lwrist -36.2415
lhand -7.79669 8.70587
lfingers 7.12502
lthumb 18.1045 37.8833
rfemur -21.3525 -11.1491 9.33627
rtibia 40.6139
rfoot -12.1146 -8.13991
rtoes 27.8248
lfemur -14.2784 4.80424 -19.7207
ltibia 22.9685
lfoot -9.46338 -10.1073
ltoes 16.3608
585
root -10.7505 16.5659 -11.4632 11.9629 -43.1946 -365.627
lowerback -9.88388 -0.473492 -4.10027
upperback 2.37562 -0.18872 1.10558
thorax 8.10647 -0.323438 3.45674
lowerneck -2.43914 1.45436 -4.51323
upperneck -2.60123 2.13876 8.37816
head -0.552046 1.07427 3.50558
rclavicle -5.1684e-015 9.54166e-015
rhumerus -34.5582 -22.6218 -75.2127
rradius 26.7052
rwrist 31.6636
rhand -9.75559 -7.86689
rfingers 7.12502
rthumb 16.219 -37.2084
lclavicle -5.1684e-015 9.54166e-015
lhumerus -24.8076 13.9496 77.0447
lradius 16.1387
lwrist -37.8398
lhand -8.41343 8.80244
lfingers 7.12502
lthumb 17.511 38.0338
rfemur -21.733 -10.011 9.40863
rtibia 41.5157
rfoot -12.7137 -7.46133
rtoes 27.1577
lfemur -14.1373 4.46461 -19.9191
ltibia 23.1609
lfoot -9.32599 -10.5393
ltoes 16.9706
